<?xml version="1.0" encoding="UTF-8" standalone="no"?>
<svg
   xmlns:dc="http://purl.org/dc/elements/1.1/"
   xmlns:cc="http://creativecommons.org/ns#"
   xmlns:rdf="http://www.w3.org/1999/02/22-rdf-syntax-ns#"
   xmlns:svg="http://www.w3.org/2000/svg"
   xmlns="http://www.w3.org/2000/svg"
   xmlns:sodipodi="http://sodipodi.sourceforge.net/DTD/sodipodi-0.dtd"
   xmlns:inkscape="http://www.inkscape.org/namespaces/inkscape"
   sodipodi:docname="favicon.svg"
   inkscape:version="1.0 (4035a4fb49, 2020-05-01)"
   id="svg8"
   version="1.1"
   viewBox="0 0 11.035559 16.761164"
   height="16.761164mm"
   width="11.035559mm">
  <defs
     id="defs2" />
  <sodipodi:namedview
     inkscape:window-maximized="1"
     inkscape:window-y="-8"
     inkscape:window-x="-8"
     inkscape:window-height="1017"
     inkscape:window-width="1920"
     showgrid="false"
     inkscape:document-rotation="0"
     inkscape:current-layer="layer1"
     inkscape:document-units="mm"
     inkscape:cy="31.479478"
     inkscape:cx="29.892636"
     inkscape:zoom="11.2"
     inkscape:pageshadow="2"
     inkscape:pageopacity="0.0"
     borderopacity="1.0"
     bordercolor="#666666"
     pagecolor="#ffffff"
     id="base" />
  <metadata
     id="metadata5">
    <rdf:RDF>
      <cc:Work
         rdf:about="">
        <dc:format>image/svg+xml</dc:format>
        <dc:type
           rdf:resource="http://purl.org/dc/dcmitype/StillImage" />
        <dc:title></dc:title>
      </cc:Work>
    </rdf:RDF>
  </metadata>
  <g
     transform="translate(-124.53548,-133.03746)"
     id="layer1"
     inkscape:groupmode="layer"
     inkscape:label="Ebene 1">
    <path
       id="path24"
       d="m 128.43631,149.45371 c -5.5152,-2.46896 -5.06229,-14.75146 0.60018,-16.27621 4.88446,-1.31524 8.35003,6.91015 5.5111,13.08038 -1.34189,2.9165 -3.82942,4.21733 -6.11128,3.19583 z m 3.33431,-1.2776 c 2.03828,-1.3497 3.28741,-5.56477 2.61534,-8.82521 -0.4048,-1.96379 -0.86584,-2.88903 -2.06146,-4.13703 -1.05851,-1.10489 -2.30392,-1.48138 -3.26502,-0.987 -3.56324,1.83288 -4.71988,7.91584 -2.3081,12.1387 1.32226,2.3152 3.22215,3.00053 5.01924,1.81054 z m -2.14368,-5.09323 v -1.19063 h -1.19063 c -1.01423,0 -1.19062,-0.0784 -1.19062,-0.52916 0,-0.45078 0.17639,-0.52917 1.19062,-0.52917 h 1.19063 v -1.19063 c 0,-1.01423 0.0784,-1.19062 0.52916,-1.19062 0.45078,0 0.52917,0.17639 0.52917,1.19062 v 1.19063 h 1.19063 c 1.01423,0 1.19062,0.0784 1.19062,0.52917 0,0.45077 -0.17639,0.52916 -1.19062,0.52916 h -1.19063 v 1.19063 c 0,1.01423 -0.0784,1.19062 -0.52917,1.19062 -0.45077,0 -0.52916,-0.17639 -0.52916,-1.19062 z"
       style="fill:#000000;stroke-width:0.264583" />
  </g>
</svg>
